<svg width="14" height="14" viewBox="0 0 14 14" fill="none" xmlns="http://www.w3.org/2000/svg">
  <path d="M7.42461 7.975L2.52461 12.875C2.34128 13.0583 2.10794 13.15 1.82461 13.15C1.54128 13.15 1.30794 13.0583 1.12461 12.875C0.941276 12.6917 0.849609 12.4583 0.849609 12.175C0.849609 11.8917 0.941276 11.6583 1.12461 11.475L6.02461 6.575L1.12461 1.675C0.941276 1.49167 0.849609 1.25833 0.849609 0.975C0.849609 0.691667 0.941276 0.458333 1.12461 0.275C1.30794 0.0916667 1.54128 0 1.82461 0C2.10794 0 2.34128 0.0916667 2.52461 0.275L7.42461 5.175L12.3246 0.275C12.5079 0.0916667 12.7413 0 13.0246 0C13.3079 0 13.5413 0.0916667 13.7246 0.275C13.9079 0.458333 13.9996 0.691667 13.9996 0.975C13.9996 1.25833 13.9079 1.49167 13.7246 1.675L8.82461 6.575L13.7246 11.475C13.9079 11.6583 13.9996 11.8917 13.9996 12.175C13.9996 12.4583 13.9079 12.6917 13.7246 12.875C13.5413 13.0583 13.3079 13.15 13.0246 13.15C12.7413 13.15 12.5079 13.0583 12.3246 12.875L7.42461 7.975Z" fill="#df964e"/>
</svg>